<svg id="visual" viewBox="0 0 900 600" width="900" height="600" xmlns="http://www.w3.org/2000/svg" xmlns:xlink="http://www.w3.org/1999/xlink" version="1.1"><rect x="0" y="0" width="900" height="600" fill="#001220"></rect><defs><linearGradient id="grad1_0" x1="33.3%" y1="0%" x2="100%" y2="100%"><stop offset="20%" stop-color="#fbae3c" stop-opacity="1"></stop><stop offset="80%" stop-color="#fbae3c" stop-opacity="1"></stop></linearGradient></defs><defs><linearGradient id="grad1_1" x1="33.3%" y1="0%" x2="100%" y2="100%"><stop offset="20%" stop-color="#fbae3c" stop-opacity="1"></stop><stop offset="80%" stop-color="#eb7458" stop-opacity="1"></stop></linearGradient></defs><defs><linearGradient id="grad1_2" x1="33.3%" y1="0%" x2="100%" y2="100%"><stop offset="20%" stop-color="#b84e6c" stop-opacity="1"></stop><stop offset="80%" stop-color="#eb7458" stop-opacity="1"></stop></linearGradient></defs><defs><linearGradient id="grad1_3" x1="33.3%" y1="0%" x2="100%" y2="100%"><stop offset="20%" stop-color="#b84e6c" stop-opacity="1"></stop><stop offset="80%" stop-color="#713c69" stop-opacity="1"></stop></linearGradient></defs><defs><linearGradient id="grad1_4" x1="33.3%" y1="0%" x2="100%" y2="100%"><stop offset="20%" stop-color="#2d2b4c" stop-opacity="1"></stop><stop offset="80%" stop-color="#713c69" stop-opacity="1"></stop></linearGradient></defs><defs><linearGradient id="grad1_5" x1="33.3%" y1="0%" x2="100%" y2="100%"><stop offset="20%" stop-color="#2d2b4c" stop-opacity="1"></stop><stop offset="80%" stop-color="#001220" stop-opacity="1"></stop></linearGradient></defs><defs><linearGradient id="grad2_0" x1="0%" y1="0%" x2="66.7%" y2="100%"><stop offset="20%" stop-color="#fbae3c" stop-opacity="1"></stop><stop offset="80%" stop-color="#fbae3c" stop-opacity="1"></stop></linearGradient></defs><defs><linearGradient id="grad2_1" x1="0%" y1="0%" x2="66.7%" y2="100%"><stop offset="20%" stop-color="#eb7458" stop-opacity="1"></stop><stop offset="80%" stop-color="#fbae3c" stop-opacity="1"></stop></linearGradient></defs><defs><linearGradient id="grad2_2" x1="0%" y1="0%" x2="66.7%" y2="100%"><stop offset="20%" stop-color="#eb7458" stop-opacity="1"></stop><stop offset="80%" stop-color="#b84e6c" stop-opacity="1"></stop></linearGradient></defs><defs><linearGradient id="grad2_3" x1="0%" y1="0%" x2="66.7%" y2="100%"><stop offset="20%" stop-color="#713c69" stop-opacity="1"></stop><stop offset="80%" stop-color="#b84e6c" stop-opacity="1"></stop></linearGradient></defs><defs><linearGradient id="grad2_4" x1="0%" y1="0%" x2="66.7%" y2="100%"><stop offset="20%" stop-color="#713c69" stop-opacity="1"></stop><stop offset="80%" stop-color="#2d2b4c" stop-opacity="1"></stop></linearGradient></defs><defs><linearGradient id="grad2_5" x1="0%" y1="0%" x2="66.7%" y2="100%"><stop offset="20%" stop-color="#001220" stop-opacity="1"></stop><stop offset="80%" stop-color="#2d2b4c" stop-opacity="1"></stop></linearGradient></defs><g transform="translate(900, 0)"><path d="M0 513.8C-21.2 436 -42.3 358.1 -82.6 361.7C-122.8 365.3 -182.1 450.2 -222.9 462.9C-263.7 475.6 -286.1 416 -293 367.5C-300 318.9 -291.6 281.5 -331.5 264.4C-371.4 247.2 -459.5 250.3 -454.1 218.7C-448.7 187.1 -349.8 120.8 -344.1 78.5C-338.5 36.3 -426.2 18.2 -513.8 0L0 0Z" fill="#131f37"></path><path d="M0 428.2C-17.6 363.3 -35.3 298.4 -68.8 301.4C-102.3 304.4 -151.8 375.2 -185.8 385.8C-219.8 396.3 -238.4 346.6 -244.2 306.2C-250 265.8 -243 234.6 -276.2 220.3C-309.5 206 -382.9 208.6 -378.4 182.2C-373.9 155.9 -291.5 100.6 -286.8 65.5C-282.1 30.3 -355.1 15.1 -428.2 0L0 0Z" fill="#4d345e"></path><path d="M0 342.5C-14.1 290.6 -28.2 238.8 -55 241.1C-81.9 243.5 -121.4 300.2 -148.6 308.6C-175.8 317.1 -190.7 277.3 -195.4 245C-200 212.6 -194.4 187.7 -221 176.2C-247.6 164.8 -306.3 166.9 -302.7 145.8C-299.1 124.7 -233.2 80.5 -229.4 52.4C-225.7 24.2 -284.1 12.1 -342.5 0L0 0Z" fill="#96446e"></path><path d="M0 256.9C-10.6 218 -21.2 179.1 -41.3 180.8C-61.4 182.6 -91.1 225.1 -111.5 231.5C-131.9 237.8 -143 208 -146.5 183.7C-150 159.5 -145.8 140.8 -165.7 132.2C-185.7 123.6 -229.7 125.1 -227 109.3C-224.3 93.5 -174.9 60.4 -172.1 39.3C-169.3 18.2 -213.1 9.1 -256.9 0L0 0Z" fill="#d55e64"></path><path d="M0 171.3C-7.1 145.3 -14.1 119.4 -27.5 120.6C-40.9 121.8 -60.7 150.1 -74.3 154.3C-87.9 158.5 -95.4 138.7 -97.7 122.5C-100 106.3 -97.2 93.8 -110.5 88.1C-123.8 82.4 -153.2 83.4 -151.4 72.9C-149.6 62.4 -116.6 40.3 -114.7 26.2C-112.8 12.1 -142.1 6.1 -171.3 0L0 0Z" fill="#f88f4a"></path><path d="M0 85.6C-3.5 72.7 -7.1 59.7 -13.8 60.3C-20.5 60.9 -30.4 75 -37.2 77.2C-44 79.3 -47.7 69.3 -48.8 61.2C-50 53.2 -48.6 46.9 -55.2 44.1C-61.9 41.2 -76.6 41.7 -75.7 36.4C-74.8 31.2 -58.3 20.1 -57.4 13.1C-56.4 6.1 -71 3 -85.6 0L0 0Z" fill="#fbae3c"></path></g><g transform="translate(0, 600)"><path d="M0 -513.8C31.1 -469.2 62.2 -424.6 92.3 -404.6C122.5 -384.6 151.8 -389.3 190.9 -396.4C230 -403.5 278.8 -413.1 320.3 -401.7C361.9 -390.3 396 -357.9 389.4 -310.5C382.7 -263.1 335.1 -200.6 347.8 -167.5C360.4 -134.3 433.2 -130.5 470.9 -107.5C508.6 -84.5 511.2 -42.2 513.8 0L0 0Z" fill="#131f37"></path><path d="M0 -428.2C25.9 -391 51.8 -353.8 77 -337.2C102.1 -320.5 126.5 -324.4 159.1 -330.4C191.7 -336.3 232.4 -344.3 267 -334.7C301.5 -325.2 330 -298.3 324.5 -258.7C318.9 -219.2 279.3 -167.2 289.8 -139.6C300.3 -111.9 361 -108.8 392.4 -89.6C423.8 -70.4 426 -35.2 428.2 0L0 0Z" fill="#4d345e"></path><path d="M0 -342.5C20.7 -312.8 41.4 -283 61.6 -269.7C81.7 -256.4 101.2 -259.5 127.3 -264.3C153.3 -269 185.9 -275.4 213.6 -267.8C241.2 -260.2 264 -238.6 259.6 -207C255.1 -175.4 223.4 -133.7 231.8 -111.7C240.3 -89.6 288.8 -87 313.9 -71.7C339.1 -56.3 340.8 -28.2 342.5 0L0 0Z" fill="#96446e"></path><path d="M0 -256.9C15.5 -234.6 31.1 -212.3 46.2 -202.3C61.3 -192.3 75.9 -194.7 95.5 -198.2C115 -201.8 139.4 -206.6 160.2 -200.8C180.9 -195.1 198 -179 194.7 -155.2C191.3 -131.5 167.6 -100.3 173.9 -83.7C180.2 -67.2 216.6 -65.3 235.4 -53.7C254.3 -42.2 255.6 -21.1 256.9 0L0 0Z" fill="#d55e64"></path><path d="M0 -171.3C10.4 -156.4 20.7 -141.5 30.8 -134.9C40.8 -128.2 50.6 -129.8 63.6 -132.1C76.7 -134.5 92.9 -137.7 106.8 -133.9C120.6 -130.1 132 -119.3 129.8 -103.5C127.6 -87.7 111.7 -66.9 115.9 -55.8C120.1 -44.8 144.4 -43.5 157 -35.8C169.5 -28.2 170.4 -14.1 171.3 0L0 0Z" fill="#f88f4a"></path><path d="M0 -85.6C5.2 -78.2 10.4 -70.8 15.4 -67.4C20.4 -64.1 25.3 -64.9 31.8 -66.1C38.3 -67.3 46.5 -68.9 53.4 -66.9C60.3 -65 66 -59.7 64.9 -51.7C63.8 -43.8 55.9 -33.4 58 -27.9C60.1 -22.4 72.2 -21.8 78.5 -17.9C84.8 -14.1 85.2 -7 85.6 0L0 0Z" fill="#fbae3c"></path></g></svg>